<mxfile host="app.diagrams.net" modified="2020-10-17T08:42:20.436Z" agent="5.0 (Windows)" etag="n9Ps_9TbBJwAHLPD4UVD" version="13.8.0" type="github">
  <diagram id="h2YiutnrLx_wMpK8OsgN" name="Page-1">
    <mxGraphModel dx="868" dy="479" grid="1" gridSize="10" guides="1" tooltips="1" connect="1" arrows="1" fold="1" page="1" pageScale="1" pageWidth="850" pageHeight="1100" math="0" shadow="0">
      <root>
        <mxCell id="0" />
        <mxCell id="1" parent="0" />
        <mxCell id="dl5Ghu2mbUJKdMSbDWOD-1" value="" style="rounded=0;whiteSpace=wrap;html=1;" vertex="1" parent="1">
          <mxGeometry x="300" y="170" width="210" height="100" as="geometry" />
        </mxCell>
        <mxCell id="dl5Ghu2mbUJKdMSbDWOD-2" value="&lt;font style=&quot;font-size: 24px&quot;&gt;Question Answering Model&lt;/font&gt;" style="text;html=1;strokeColor=none;fillColor=none;align=center;verticalAlign=middle;whiteSpace=wrap;rounded=0;" vertex="1" parent="1">
          <mxGeometry x="370" y="210" width="70" height="20" as="geometry" />
        </mxCell>
        <mxCell id="dl5Ghu2mbUJKdMSbDWOD-7" value="System" style="shape=umlActor;verticalLabelPosition=bottom;verticalAlign=top;html=1;outlineConnect=0;" vertex="1" parent="1">
          <mxGeometry x="190" y="190" width="30" height="60" as="geometry" />
        </mxCell>
        <mxCell id="dl5Ghu2mbUJKdMSbDWOD-9" value="User" style="shape=umlActor;verticalLabelPosition=bottom;verticalAlign=top;html=1;outlineConnect=0;" vertex="1" parent="1">
          <mxGeometry x="600" y="190" width="30" height="60" as="geometry" />
        </mxCell>
        <mxCell id="dl5Ghu2mbUJKdMSbDWOD-10" value="" style="endArrow=classic;html=1;entryX=0;entryY=0.6;entryDx=0;entryDy=0;entryPerimeter=0;" edge="1" parent="1" target="dl5Ghu2mbUJKdMSbDWOD-1">
          <mxGeometry width="50" height="50" relative="1" as="geometry">
            <mxPoint x="230" y="230" as="sourcePoint" />
            <mxPoint x="290" y="200" as="targetPoint" />
          </mxGeometry>
        </mxCell>
        <mxCell id="dl5Ghu2mbUJKdMSbDWOD-11" value="" style="endArrow=classic;html=1;entryX=0;entryY=0.6;entryDx=0;entryDy=0;entryPerimeter=0;" edge="1" parent="1">
          <mxGeometry width="50" height="50" relative="1" as="geometry">
            <mxPoint x="590" y="230" as="sourcePoint" />
            <mxPoint x="510" y="230" as="targetPoint" />
          </mxGeometry>
        </mxCell>
      </root>
    </mxGraphModel>
  </diagram>
</mxfile>
